<?xml version="1.0" encoding="utf-8"?>
<!-- Generator: Adobe Illustrator 26.5.0, SVG Export Plug-In . SVG Version: 6.00 Build 0)  -->
<svg version="1.2" baseProfile="tiny" id="g-Attendance_plot-Artboard_1-Layer-img" xmlns="http://www.w3.org/2000/svg" xmlns:xlink="http://www.w3.org/1999/xlink"
	 x="0px" y="0px" viewBox="0 0 1200 653.898" overflow="visible" xml:space="preserve">
<g>
	
		<line fill="none" stroke="#CCCCCC" stroke-width="1.07" stroke-linejoin="round" stroke-miterlimit="10" x1="103.06" y1="79.646" x2="1040.44" y2="79.646"/>
	
		<line fill="none" stroke="#CCCCCC" stroke-width="1.07" stroke-linejoin="round" stroke-miterlimit="10" x1="103.06" y1="142.996" x2="1040.44" y2="142.996"/>
	
		<line fill="none" stroke="#CCCCCC" stroke-width="1.07" stroke-linejoin="round" stroke-miterlimit="10" x1="103.06" y1="209.616" x2="1040.44" y2="209.616"/>
	
		<line fill="none" stroke="#CCCCCC" stroke-width="1.07" stroke-linejoin="round" stroke-miterlimit="10" x1="103.06" y1="276.236" x2="1040.44" y2="276.236"/>
	
		<line fill="none" stroke="#CCCCCC" stroke-width="1.07" stroke-linejoin="round" stroke-miterlimit="10" x1="103.06" y1="342.846" x2="1040.44" y2="342.846"/>
	
		<line fill="none" stroke="#CCCCCC" stroke-width="1.07" stroke-linejoin="round" stroke-miterlimit="10" x1="103.06" y1="409.466" x2="1040.44" y2="409.466"/>
	
		<line fill="none" stroke="#CCCCCC" stroke-width="1.07" stroke-linejoin="round" stroke-miterlimit="10" x1="103.06" y1="476.086" x2="1040.44" y2="476.086"/>
	
		<polyline id="Attendance_x5F_2017_00000029751181807850321410000016251539507860489899_" fill="none" stroke="#BE5500" stroke-width="4" stroke-linecap="round" stroke-linejoin="round" stroke-miterlimit="10" points="
		175.67,473.086 277.69,147.666 319.7,499.896 337.71,480.916 349.71,488.576 589.76,389.316 709.78,474.086 715.78,457.436 
		751.79,464.096 757.79,464.596 847.81,450.266 853.81,484.576 	"/>
	
		<polyline id="Attendance_x5F_2018_00000082336769671003331530000014274623386823416192_" fill="none" stroke="#CD8D00" stroke-width="4" stroke-linecap="round" stroke-linejoin="round" stroke-miterlimit="10" points="
		175.67,479.746 229.68,484.746 313.7,109.356 457.73,450.766 481.73,483.416 625.76,375.826 661.77,457.596 667.77,423.956 
		703.78,454.936 709.78,420.626 835.8,431.616 841.81,370.826 	"/>
	
		<polyline id="Attendance_x5F_2019_00000046316017366739762380000013832183886557339054_" fill="none" stroke="#029D4A" stroke-width="4" stroke-linecap="round" stroke-linejoin="round" stroke-miterlimit="10" points="
		145.67,484.246 163.67,457.266 283.7,482.576 319.7,124.016 337.71,483.246 409.72,480.916 493.74,444.936 577.75,405.966 
		655.77,416.296 661.77,429.116 739.79,479.586 745.79,396.306 865.81,337.356 871.81,365.336 	"/>
	
		<polyline id="Attendance_x5F_2021_00000082367022420622013550000018198080967138812861_" fill="none" stroke="#02659D" stroke-width="4" stroke-linecap="round" stroke-linejoin="round" stroke-miterlimit="10" points="
		157.67,474.086 247.69,480.586 295.7,454.096 349.71,430.116 361.71,483.576 625.76,525.216 763.79,372.326 769.79,389.816 
		793.8,224.106 811.8,423.286 925.82,457.436 973.83,363.666 997.84,197.626 	"/>
	
		<polyline id="Attendance_x5F_2022_00000148624267755468772930000012832210082392415159_" fill="none" stroke="#8F65AC" stroke-width="4" stroke-linecap="round" stroke-linejoin="round" stroke-miterlimit="10" points="
		181.67,390.646 289.7,477.246 301.7,465.426 451.73,447.436 553.75,355.006 595.76,348.346 637.76,320.366 673.77,191.126 
		679.77,100.866 721.78,295.386 853.81,109.356 931.82,443.946 949.83,380.326 973.83,286.726 985.83,261.406 	"/>
	
		<polyline id="Attendance_x5F_2023_00000145777311997851916910000006266542035396654232_" fill="none" stroke="#EF959D" stroke-width="4" stroke-linecap="round" stroke-linejoin="round" stroke-miterlimit="10" points="
		163.67,374.326 187.68,205.116 199.68,455.436 253.69,393.476 277.69,150.156 301.7,372.166 319.7,391.646 343.71,388.816 
		505.74,342.516 	"/>
	<rect x="60" y="74.166" fill="none" width="1080" height="504"/>
	
		<line fill="none" stroke="#333333" stroke-width="1.07" stroke-linejoin="round" stroke-miterlimit="10" x1="100.32" y1="542.706" x2="103.06" y2="542.706"/>
	
		<line fill="none" stroke="#000000" stroke-width="1.07" stroke-linejoin="round" stroke-miterlimit="10" x1="103.06" y1="542.706" x2="1040.44" y2="542.706"/>
	
		<line fill="none" stroke="#333333" stroke-width="1.07" stroke-linejoin="round" stroke-miterlimit="10" x1="109.66" y1="549.176" x2="109.66" y2="542.706"/>
	
		<line fill="none" stroke="#333333" stroke-width="1.07" stroke-linejoin="round" stroke-miterlimit="10" x1="289.7" y1="549.176" x2="289.7" y2="542.706"/>
	
		<line fill="none" stroke="#333333" stroke-width="1.07" stroke-linejoin="round" stroke-miterlimit="10" x1="475.73" y1="549.176" x2="475.73" y2="542.706"/>
	
		<line fill="none" stroke="#333333" stroke-width="1.07" stroke-linejoin="round" stroke-miterlimit="10" x1="661.77" y1="549.176" x2="661.77" y2="542.706"/>
	
		<line fill="none" stroke="#333333" stroke-width="1.07" stroke-linejoin="round" stroke-miterlimit="10" x1="835.8" y1="549.176" x2="835.8" y2="542.706"/>
	
		<line fill="none" stroke="#333333" stroke-width="1.07" stroke-linejoin="round" stroke-miterlimit="10" x1="1021.84" y1="549.176" x2="1021.84" y2="542.706"/>
	
		<rect id="Legend_x5F_2017_00000108305133696765130190000018139162389006671522_" x="1070.232" y="90.119" fill="#BE5500" width="19.5" height="19.5"/>
	
		<rect id="Legend_x5F_2018_00000051369363406895651100000015193360128358921627_" x="1070.232" y="116.769" fill="#CD8D00" width="19.5" height="19.5"/>
	
		<rect id="Legend_x5F_2019_00000101072329639710029000000016455017713344917392_" x="1070.232" y="143.419" fill="#029D4A" width="19.5" height="19.5"/>
	
		<rect id="Legend_x5F_2021_00000070099305833524343450000005429020912354330046_" x="1070.232" y="170.069" fill="#02659D" width="19.5" height="19.5"/>
	
		<rect id="Legend_x5F_2022_00000074428942223785362540000008457570381080637625_" x="1070.232" y="196.719" fill="#8F65AC" width="19.5" height="19.5"/>
	
		<rect id="Legend_x5F_2023_00000091706534742135618070000007695543382396028591_" x="1070.232" y="223.369" fill="#EF959D" width="19.5" height="19.5"/>
</g>
<style>
#g-Attendance_plot-Artboard_1-Layer-img rect, #g-Attendance_plot-Artboard_1-Layer-img circle, #g-Attendance_plot-Artboard_1-Layer-img path, #g-Attendance_plot-Artboard_1-Layer-img line, #g-Attendance_plot-Artboard_1-Layer-img polyline, #g-Attendance_plot-Artboard_1-Layer-img polygon { vector-effect: non-scaling-stroke; }
</style>
</svg>

