<?xml version="1.0" encoding="utf-8"?>
<!-- Generator: Adobe Illustrator 26.5.0, SVG Export Plug-In . SVG Version: 6.00 Build 0)  -->
<svg version="1.2" baseProfile="tiny" id="g-Attendance_plot-Artboard_14-Layer-img" xmlns="http://www.w3.org/2000/svg" xmlns:xlink="http://www.w3.org/1999/xlink"
	 x="0px" y="0px" viewBox="0 0 600 355.56" overflow="visible" xml:space="preserve">
<g>
	
		<line fill="none" stroke="#CCCCCC" stroke-width="0.535" stroke-linejoin="round" stroke-miterlimit="10" x1="55.923" y1="43.592" x2="524.613" y2="43.592"/>
	
		<line fill="none" stroke="#CCCCCC" stroke-width="0.535" stroke-linejoin="round" stroke-miterlimit="10" x1="55.923" y1="75.267" x2="524.613" y2="75.267"/>
	
		<line fill="none" stroke="#CCCCCC" stroke-width="0.535" stroke-linejoin="round" stroke-miterlimit="10" x1="55.923" y1="108.577" x2="524.613" y2="108.577"/>
	
		<line fill="none" stroke="#CCCCCC" stroke-width="0.535" stroke-linejoin="round" stroke-miterlimit="10" x1="55.923" y1="141.887" x2="524.613" y2="141.887"/>
	
		<line fill="none" stroke="#CCCCCC" stroke-width="0.535" stroke-linejoin="round" stroke-miterlimit="10" x1="55.923" y1="175.192" x2="524.613" y2="175.192"/>
	
		<line fill="none" stroke="#CCCCCC" stroke-width="0.535" stroke-linejoin="round" stroke-miterlimit="10" x1="55.923" y1="208.502" x2="524.613" y2="208.502"/>
	
		<line fill="none" stroke="#CCCCCC" stroke-width="0.535" stroke-linejoin="round" stroke-miterlimit="10" x1="55.923" y1="241.812" x2="524.613" y2="241.812"/>
	
		<polyline id="Attendance_x5F_2017_00000111159060075264203150000012720252300013855618_" fill="none" stroke="#BE5500" stroke-width="2" stroke-linecap="round" stroke-linejoin="round" stroke-miterlimit="10" points="
		92.228,240.312 143.238,77.602 164.243,253.717 173.248,244.227 179.248,248.057 299.273,198.427 359.283,240.812 362.283,232.487 
		380.288,235.817 383.288,236.067 428.298,228.902 431.298,246.057 	"/>
	
		<polyline id="Attendance_x5F_2018_00000106135522864252978320000007195761998141144713_" fill="none" stroke="#CD8D00" stroke-width="2" stroke-linecap="round" stroke-linejoin="round" stroke-miterlimit="10" points="
		92.228,243.642 119.233,246.142 161.243,58.447 233.258,229.152 245.258,245.477 317.273,191.682 335.278,232.567 338.278,215.747 
		356.283,231.237 359.283,214.082 422.293,219.577 425.298,189.182 	"/>
	
		<polyline id="Attendance_x5F_2019_00000078767595204052650850000003511507993215005856_" fill="none" stroke="#029D4A" stroke-width="2" stroke-linecap="round" stroke-linejoin="round" stroke-miterlimit="10" points="
		77.228,245.892 86.228,232.402 146.243,245.057 164.243,65.777 173.248,245.392 209.253,244.227 251.263,226.237 293.268,206.752 
		332.278,211.917 335.278,218.327 374.288,243.562 377.288,201.922 437.298,172.447 440.298,186.437 	"/>
	
		<polyline id="Attendance_x5F_2021_00000108284770773825942060000013116706475100922244_" fill="none" stroke="#02659D" stroke-width="2" stroke-linecap="round" stroke-linejoin="round" stroke-miterlimit="10" points="
		83.228,240.812 128.238,244.062 152.243,230.817 179.248,218.827 185.248,245.557 317.273,266.377 386.288,189.932 
		389.288,198.677 401.293,115.822 410.293,215.412 467.303,232.487 491.308,185.602 503.313,102.582 	"/>
	
		<polyline id="Attendance_x5F_2022_00000083783737610293523750000008689685924085848766_" fill="none" stroke="#8F65AC" stroke-width="2" stroke-linecap="round" stroke-linejoin="round" stroke-miterlimit="10" points="
		95.228,199.092 149.243,242.392 155.243,236.482 230.258,227.487 281.268,181.272 302.273,177.942 323.273,163.952 341.278,99.332 
		344.278,54.202 365.283,151.462 431.298,58.447 470.303,225.742 479.308,193.932 491.308,147.132 497.308,134.472 	"/>
	
		<polyline id="Attendance_x5F_2023_00000131358236039981558900000000269855291699411851_" fill="none" stroke="#EF959D" stroke-width="2" stroke-linecap="round" stroke-linejoin="round" stroke-miterlimit="10" points="
		86.228,190.932 98.233,106.327 104.233,231.487 131.238,200.507 143.238,78.847 155.243,189.852 164.243,199.592 176.248,198.177 
		257.263,175.027 	"/>
	<rect x="34.393" y="40.852" fill="none" width="540" height="252"/>
	
		<line fill="none" stroke="#333333" stroke-width="0.535" stroke-linejoin="round" stroke-miterlimit="10" x1="54.553" y1="275.122" x2="55.923" y2="275.122"/>
	
		<line fill="none" stroke="#000000" stroke-width="0.535" stroke-linejoin="round" stroke-miterlimit="10" x1="55.923" y1="275.122" x2="524.613" y2="275.122"/>
	
		<line fill="none" stroke="#333333" stroke-width="0.535" stroke-linejoin="round" stroke-miterlimit="10" x1="59.223" y1="278.357" x2="59.223" y2="275.122"/>
	
		<line fill="none" stroke="#333333" stroke-width="0.535" stroke-linejoin="round" stroke-miterlimit="10" x1="149.243" y1="278.357" x2="149.243" y2="275.122"/>
	
		<line fill="none" stroke="#333333" stroke-width="0.535" stroke-linejoin="round" stroke-miterlimit="10" x1="242.258" y1="278.357" x2="242.258" y2="275.122"/>
	
		<line fill="none" stroke="#333333" stroke-width="0.535" stroke-linejoin="round" stroke-miterlimit="10" x1="335.278" y1="278.357" x2="335.278" y2="275.122"/>
	
		<line fill="none" stroke="#333333" stroke-width="0.535" stroke-linejoin="round" stroke-miterlimit="10" x1="422.293" y1="278.357" x2="422.293" y2="275.122"/>
	
		<line fill="none" stroke="#333333" stroke-width="0.535" stroke-linejoin="round" stroke-miterlimit="10" x1="515.313" y1="278.357" x2="515.313" y2="275.122"/>
	
		<rect id="Legend_x5F_2017_00000159453690951455005780000008789733693351700383_" x="539.509" y="48.828" fill="#BE5500" width="9.75" height="9.75"/>
	
		<rect id="Legend_x5F_2018_00000133493829808810540960000002082057273593834934_" x="539.509" y="62.153" fill="#CD8D00" width="9.75" height="9.75"/>
	
		<rect id="Legend_x5F_2019_00000061429518438789745340000000424411376268131238_" x="539.509" y="75.478" fill="#029D4A" width="9.75" height="9.75"/>
	
		<rect id="Legend_x5F_2021_00000062903839440924095110000000425882352726881704_" x="539.509" y="88.803" fill="#02659D" width="9.75" height="9.75"/>
	
		<rect id="Legend_x5F_2022_00000155124816532554512600000003580716552344151464_" x="539.509" y="102.128" fill="#8F65AC" width="9.75" height="9.75"/>
	
		<rect id="Legend_x5F_2023_00000160187322794282184790000002448408224484837779_" x="539.509" y="115.453" fill="#EF959D" width="9.75" height="9.75"/>
</g>
<style>
#g-Attendance_plot-Artboard_14-Layer-img rect, #g-Attendance_plot-Artboard_14-Layer-img circle, #g-Attendance_plot-Artboard_14-Layer-img path, #g-Attendance_plot-Artboard_14-Layer-img line, #g-Attendance_plot-Artboard_14-Layer-img polyline, #g-Attendance_plot-Artboard_14-Layer-img polygon { vector-effect: non-scaling-stroke; }
</style>
</svg>

