<?xml version="1.0" encoding="utf-8"?>
<!-- Generator: Adobe Illustrator 26.5.0, SVG Export Plug-In . SVG Version: 6.00 Build 0)  -->
<svg version="1.2" baseProfile="tiny" id="g-Attendance_plot-Artboard_15-Layer-img" xmlns="http://www.w3.org/2000/svg" xmlns:xlink="http://www.w3.org/1999/xlink"
	 x="0px" y="0px" viewBox="0 0 300 605.84" overflow="visible" xml:space="preserve">
<g>
	
		<line fill="none" stroke="#CCCCCC" stroke-width="0.535" stroke-linejoin="round" stroke-miterlimit="10" x1="263.632" y1="70.366" x2="263.633" y2="539.056"/>
	
		<line fill="none" stroke="#CCCCCC" stroke-width="0.535" stroke-linejoin="round" stroke-miterlimit="10" x1="231.957" y1="70.366" x2="231.958" y2="539.056"/>
	
		<line fill="none" stroke="#CCCCCC" stroke-width="0.535" stroke-linejoin="round" stroke-miterlimit="10" x1="198.647" y1="70.366" x2="198.648" y2="539.056"/>
	
		<line fill="none" stroke="#CCCCCC" stroke-width="0.535" stroke-linejoin="round" stroke-miterlimit="10" x1="165.337" y1="70.366" x2="165.338" y2="539.056"/>
	
		<line fill="none" stroke="#CCCCCC" stroke-width="0.535" stroke-linejoin="round" stroke-miterlimit="10" x1="132.032" y1="70.366" x2="132.033" y2="539.056"/>
	
		<line fill="none" stroke="#CCCCCC" stroke-width="0.535" stroke-linejoin="round" stroke-miterlimit="10" x1="98.722" y1="70.366" x2="98.723" y2="539.056"/>
	
		<line fill="none" stroke="#CCCCCC" stroke-width="0.535" stroke-linejoin="round" stroke-miterlimit="10" x1="65.412" y1="70.366" x2="65.413" y2="539.056"/>
	
		<polyline id="Attendance_x5F_2017_00000118381543806837183740000012516575836396572048_" fill="none" stroke="#BE5500" stroke-width="1.5" stroke-linecap="round" stroke-linejoin="round" stroke-miterlimit="10" points="
		66.912,106.671 229.622,157.681 53.507,178.686 62.997,187.691 59.167,193.691 108.797,313.716 66.412,373.726 74.737,376.726 
		71.408,394.731 71.158,397.731 78.323,442.741 61.168,445.741 	"/>
	
		<polyline id="Attendance_x5F_2018_00000002365810068094214360000001881074285387035557_" fill="none" stroke="#CD8D00" stroke-width="1.5" stroke-linecap="round" stroke-linejoin="round" stroke-miterlimit="10" points="
		63.582,106.671 61.082,133.676 248.777,175.686 78.072,247.701 61.747,259.701 115.542,331.716 74.657,349.721 91.477,352.721 
		75.987,370.726 93.142,373.726 87.648,436.736 118.043,439.741 	"/>
	
		<polyline id="Attendance_x5F_2019_00000080189378762885614750000000256125030063672986_" fill="none" stroke="#029D4A" stroke-width="1.5" stroke-linecap="round" stroke-linejoin="round" stroke-miterlimit="10" points="
		61.332,91.671 74.822,100.671 62.167,160.686 241.447,178.686 61.832,187.691 62.997,223.696 80.987,265.706 100.472,307.711 
		95.307,346.721 88.897,349.721 63.662,388.731 105.302,391.731 134.778,451.741 120.788,454.741 	"/>
	
		<polyline id="Attendance_x5F_2021_00000002370304178691916230000003016959930077090480_" fill="none" stroke="#02659D" stroke-width="1.5" stroke-linecap="round" stroke-linejoin="round" stroke-miterlimit="10" points="
		66.412,97.671 63.162,142.681 76.407,166.686 88.397,193.691 61.667,199.691 40.847,331.716 117.292,400.731 108.548,403.731 
		191.402,415.736 91.813,424.736 74.738,481.746 121.623,505.751 204.643,517.756 	"/>
	
		<polyline id="Attendance_x5F_2022_00000127722753870048446900000003503729700651078830_" fill="none" stroke="#8F65AC" stroke-width="1.5" stroke-linecap="round" stroke-linejoin="round" stroke-miterlimit="10" points="
		108.132,109.671 64.832,163.686 70.742,169.686 79.737,244.701 125.952,295.711 129.282,316.716 143.272,337.716 207.892,355.721 
		253.022,358.721 155.762,379.726 248.778,445.741 81.483,484.746 113.293,493.751 160.093,505.751 172.753,511.751 	"/>
	
		<polyline id="Attendance_x5F_2023_00000031197441850820250140000015261545708131927947_" fill="none" stroke="#EF959D" stroke-width="1.5" stroke-linecap="round" stroke-linejoin="round" stroke-miterlimit="10" points="
		116.292,100.671 200.897,112.676 75.737,118.676 106.717,145.681 228.377,157.681 117.372,169.686 107.632,178.686 
		109.047,190.691 132.197,271.706 	"/>
	<rect x="14.372" y="48.836" fill="none" width="252" height="540"/>
	
		<line fill="none" stroke="#333333" stroke-width="0.535" stroke-linejoin="round" stroke-miterlimit="10" x1="32.102" y1="68.996" x2="32.102" y2="70.366"/>
	
		<line fill="none" stroke="#000000" stroke-width="0.535" stroke-linejoin="round" stroke-miterlimit="10" x1="32.102" y1="70.366" x2="32.103" y2="539.056"/>
	
		<line fill="none" stroke="#333333" stroke-width="0.535" stroke-linejoin="round" stroke-miterlimit="10" x1="28.867" y1="73.666" x2="32.102" y2="73.666"/>
	
		<line fill="none" stroke="#333333" stroke-width="0.535" stroke-linejoin="round" stroke-miterlimit="10" x1="28.867" y1="163.686" x2="32.102" y2="163.686"/>
	
		<line fill="none" stroke="#333333" stroke-width="0.535" stroke-linejoin="round" stroke-miterlimit="10" x1="28.867" y1="256.701" x2="32.102" y2="256.701"/>
	
		<line fill="none" stroke="#333333" stroke-width="0.535" stroke-linejoin="round" stroke-miterlimit="10" x1="28.867" y1="349.721" x2="32.102" y2="349.721"/>
	
		<line fill="none" stroke="#333333" stroke-width="0.535" stroke-linejoin="round" stroke-miterlimit="10" x1="28.868" y1="436.736" x2="32.103" y2="436.736"/>
	
		<line fill="none" stroke="#333333" stroke-width="0.535" stroke-linejoin="round" stroke-miterlimit="10" x1="28.868" y1="529.756" x2="32.103" y2="529.756"/>
	
		<rect id="Legend_x5F_2017_00000080165173522745124940000006001802418913035924_" x="231.291" y="210.491" fill="#BE5500" width="9.75" height="9.75"/>
	
		<rect id="Legend_x5F_2018_00000123433884817746947600000003744776952755391911_" x="231.291" y="223.816" fill="#CD8D00" width="9.75" height="9.75"/>
	
		<rect id="Legend_x5F_2019_00000078750885264854397970000003914780007062693780_" x="231.291" y="237.141" fill="#029D4A" width="9.75" height="9.75"/>
	
		<rect id="Legend_x5F_2021_00000005963976035453836930000002152078205206236325_" x="231.291" y="250.466" fill="#02659D" width="9.75" height="9.75"/>
	
		<rect id="Legend_x5F_2022_00000155144310941295600770000000788511018269764785_" x="231.291" y="263.791" fill="#8F65AC" width="9.75" height="9.75"/>
	
		<rect id="Legend_x5F_2023_00000085970573001103581810000011682239712226511776_" x="231.291" y="277.116" fill="#EF959D" width="9.75" height="9.75"/>
</g>
<style>
#g-Attendance_plot-Artboard_15-Layer-img rect, #g-Attendance_plot-Artboard_15-Layer-img circle, #g-Attendance_plot-Artboard_15-Layer-img path, #g-Attendance_plot-Artboard_15-Layer-img line, #g-Attendance_plot-Artboard_15-Layer-img polyline, #g-Attendance_plot-Artboard_15-Layer-img polygon { vector-effect: non-scaling-stroke; }
</style>
</svg>

